<?xml version="1.0" encoding="UTF-8"?>
<svg width="541px" height="124px" viewBox="0 0 541 124" version="1.1" xmlns="http://www.w3.org/2000/svg" xmlns:xlink="http://www.w3.org/1999/xlink">
    <title>rescale_dark_logo</title>
    <g id="Page-1" stroke="none" stroke-width="1" fill="none" fill-rule="evenodd">
        <g id="rescale_dark_logo" transform="translate(0.000000, 0.002746)" fill-rule="nonzero">
            <g id="Group" transform="translate(270.246577, 61.565128) scale(-1, 1) rotate(-180.000000) translate(-270.246577, -61.565128) translate(0.000000, 0.000000)">
                <path d="M43.118922,12.93301 C43.252252,12.853012 43.385582,12.826346 43.46558,12.79968 L43.118922,12.93301 Z M42.585602,79.144688 C39.519012,79.144688 37.012408,81.744623 37.012408,84.957876 C37.012408,88.157796 39.505679,90.757731 42.585602,90.757731 L49.572094,90.757731 C50.332075,92.424356 51.172054,94.010983 52.052032,95.557611 C53.59866,98.224211 55.385282,100.757481 57.385232,103.157421 C67.518312,115.343783 82.717932,123.130255 99.610843,123.130255 L103.06409,123.130255 C107.06399,123.130255 110.93056,122.676933 114.6638,121.86362 C118.437039,121.036974 122.050282,119.823671 125.490196,118.26371 C141.623126,110.957226 153.662825,96.024266 157.142738,78.078048 L157.982717,78.078048 L157.982717,78.051382 C168.675783,78.051382 178.422206,73.691491 185.475363,66.678333 C192.581852,59.638509 196.995075,49.852087 196.995075,39.079023 L197.035074,39.079023 L197.035074,39.039024 L196.995075,39.039024 C196.995075,28.26596 192.568519,18.506204 185.448697,11.399715 C178.382207,4.39989 168.649117,0.066665 157.982717,0.039999 L157.982717,0 L51.46538,0 L51.46538,0.026666 C47.59881,0.026666 43.86557,0.586652 40.39899,1.626626 C40.225661,1.679958 40.065665,1.719957 39.919002,1.786622 L38.6657,2.186612 C38.572369,2.239944 38.479038,2.26661 38.39904,2.293276 C35.625776,3.293251 33.012508,4.559886 30.572569,6.159846 L30.439239,6.213178 L30.13258,6.426506 L30.092581,6.453172 L29.785922,6.653167 C29.692591,6.693166 29.612593,6.759831 29.519262,6.826496 C28.945943,7.226486 28.425956,7.586477 27.959301,7.946468 C25.452697,9.853087 24.919377,13.479663 26.759331,16.079598 C28.572619,18.6662 32.092531,19.212853 34.585802,17.306234 L35.652442,16.506254 L35.839104,16.39959 L36.145763,16.212928 L36.412423,16.026266 C38.145713,14.906294 40.038999,13.972984 42.038949,13.253002 C42.105614,13.253002 42.198945,13.213003 42.26561,13.173004 C42.625601,13.039674 42.905594,12.959676 43.118922,12.906344 L43.46558,12.79968 C46.038849,11.9997 48.745448,11.59971 51.46538,11.59971 L51.46538,11.626376 L157.956051,11.626376 C165.649192,11.626376 172.649017,14.732965 177.688891,19.73284 C182.702099,24.692716 185.795355,31.519212 185.795355,38.999025 L185.795355,39.025691 C185.795355,46.492171 182.688766,53.292001 177.688891,58.26521 C172.622351,63.278418 165.635859,66.39834 157.956051,66.39834 L152.302859,66.39834 C149.46293,66.39834 147.022991,68.66495 146.742998,71.638209 C145.209703,87.637809 135.009958,101.210803 120.970309,107.570644 C118.237044,108.837279 115.370449,109.797255 112.357191,110.463905 C109.3306,111.130555 106.197345,111.477213 103.024091,111.477213 L103.024091,111.450547 L99.610843,111.450547 C86.091181,111.450547 73.958151,105.264035 65.878353,95.557611 C64.331725,93.690991 62.945093,91.691041 61.678458,89.531095 C60.425156,87.397815 59.358516,85.157871 58.478538,82.864595 L58.478538,82.79793 C57.625226,80.66465 55.611943,79.158021 53.278668,79.158021 L42.612268,79.158021" id="Shape" fill="#424242"></path>
                <path d="M40.078998,20.26616 L56.211928,20.26616 C58.051882,20.26616 59.545178,21.826121 59.545178,23.73274 L59.545178,38.39904 C59.545178,43.33225 64.878378,48.892111 69.638259,48.892111 L83.73124,48.892111 C85.59786,48.892111 87.091156,50.438739 87.091156,52.358691 L87.091156,69.06494 C87.091156,70.971559 85.584527,72.53152 83.757906,72.53152 L67.59831,72.53152 C65.73169,72.53152 64.238394,70.971559 64.238394,69.06494 L64.238394,54.425306 C64.238394,49.492096 58.905194,43.972234 54.145313,43.972234 L40.078998,43.972234 C38.239044,43.972234 36.745748,42.39894 36.745748,40.505654 L36.745748,23.73274 C36.745748,21.826121 38.239044,20.26616 40.078998,20.26616" id="Path" fill="#479ABD"></path>
                <path d="M12.359691,20.26616 L28.492621,20.26616 C30.332575,20.26616 31.825871,21.826121 31.825871,23.73274 L31.825871,38.39904 C31.825871,43.33225 37.159071,48.892111 41.958951,48.892111 L56.038599,48.892111 C57.86522,48.892111 59.371849,50.438739 59.371849,52.358691 L59.371849,69.424931 C59.371849,71.344883 57.86522,72.891511 56.038599,72.891511 L41.945618,72.891511 C37.172404,72.891511 31.812538,78.451372 31.812538,83.397915 L31.812538,97.99755 C31.812538,99.890836 30.345908,101.46413 28.479288,101.46413 L12.346358,101.46413 C10.519737,101.46413 9.013108,99.890836 9.013108,97.99755 L9.013108,81.237969 C9.013108,79.33135 10.519737,77.771389 12.346358,77.771389 L26.479338,77.771389 C31.212553,77.771389 36.545753,72.238194 36.545753,67.291651 L36.545753,54.411973 C36.545753,49.478763 31.212553,43.958901 26.479338,43.958901 L12.359691,43.958901 C10.519737,43.958901 9.026441,42.385607 9.026441,40.492321 L9.026441,23.73274 C9.026441,21.826121 10.519737,20.26616 12.359691,20.26616" id="Path" fill="#424242"></path>
                <path d="M18.26621,53.305334 L18.26621,64.53172 C18.26621,66.665 16.599585,68.39829 14.53297,68.39829 L3.73324,68.39829 C1.666625,68.39829 0,66.665 0,64.53172 L0,53.305334 C0,51.172054 1.666625,49.438764 3.73324,49.438764 L14.53297,49.438764 C16.599585,49.438764 18.26621,51.172054 18.26621,53.305334" id="Path" fill="#424242"></path>
                <path d="M103.530745,34.999125 L103.530745,44.772214 C103.530745,46.638834 102.064115,48.13213 100.304159,48.13213 L90.877728,48.13213 C89.104439,48.13213 87.637809,46.625501 87.637809,44.772214 L87.637809,34.999125 C87.637809,33.159171 89.104439,31.625876 90.877728,31.625876 L100.304159,31.625876 C102.077448,31.625876 103.530745,33.159171 103.530745,34.999125" id="Path" fill="#424242"></path>
                <path d="M92.79768,81.224636 L92.79768,90.211078 C92.79768,91.944368 91.437714,93.317667 89.797755,93.317667 L81.131305,93.317667 C79.491346,93.317667 78.144713,91.917702 78.144713,90.197745 L78.144713,81.211303 C78.144713,79.504679 79.504679,78.104714 81.144638,78.104714 L89.811088,78.104714 C91.451047,78.104714 92.79768,79.491346 92.79768,81.19797 M112.183862,55.33195 L112.183862,64.438389 C112.183862,66.171679 110.810563,67.584977 109.157271,67.584977 L100.357491,67.584977 C98.717532,67.584977 97.357566,66.145013 97.357566,64.425056 L97.357566,55.33195 C97.357566,53.59866 98.717532,52.185362 100.370824,52.185362 L109.170604,52.185362 C110.810563,52.185362 112.183862,53.59866 112.183862,55.318617" id="Shape" fill="#424242"></path>
                <path d="M125.943518,49.905419 L125.943518,55.838604 C125.943518,56.985242 125.06354,57.905219 123.983567,57.905219 L118.223711,57.905219 C117.157071,57.905219 116.223761,56.971909 116.223761,55.838604 L116.223761,49.905419 C116.223761,48.785447 117.157071,47.86547 118.223711,47.86547 L123.956901,47.86547 C125.050207,47.86547 125.930185,48.79878 125.930185,49.905419" id="Path" fill="#424242"></path>
                <path d="M222.92776,20.93281 L223.06109,59.145188 C223.06109,66.345008 222.901094,71.651542 222.594435,76.39809 L222.594435,76.53142 L231.660875,76.53142 L232.114197,65.678358 L232.220861,65.678358 C234.754131,73.051507 240.833979,77.811388 247.753806,77.811388 C248.740448,77.811388 249.540428,77.704724 250.52707,77.451397 L250.633734,77.411398 L250.633734,67.784972 L250.233744,67.824971 C249.207103,67.931635 248.233794,68.024966 246.967159,68.024966 C240.273993,68.024966 235.020791,63.051757 233.607493,55.33195 C233.394165,53.86532 233.274168,52.26536 233.274168,50.572069 L233.274168,20.93281 L222.92776,20.93281 M294.752631,54.358641 C294.779297,56.39859 294.485971,62.691766 290.406073,66.851662 C288.072798,69.251602 284.939543,70.451572 281.072973,70.451572 C271.206553,70.451572 266.673333,61.811788 265.780022,54.358641 L294.752631,54.358641 Z M282.992925,19.799505 C266.380007,19.799505 255.660275,30.79923 255.660275,47.825471 C255.660275,65.558361 266.420006,77.918052 281.846287,77.918052 C298.725865,77.918052 304.725715,63.785072 304.725715,51.718707 C304.725715,49.638759 304.592385,48.012133 304.379057,46.865495 L304.352391,46.758831 L265.620026,46.892161 C265.886686,35.025791 272.873178,27.932635 284.352891,27.932635 C291.872703,27.932635 296.299259,29.319267 299.619176,30.6659 L299.752506,30.745898 L301.659125,23.412748 L301.565794,23.346083 C297.965884,21.746123 291.832704,19.812838 282.966259,19.812838 M328.845112,19.679508 C323.138588,19.679508 317.445397,21.106139 313.245502,23.586077 L313.138838,23.626076 L315.618776,31.439214 L315.752106,31.33255 C318.778697,29.545928 324.071898,27.46598 329.085106,27.46598 C335.644942,27.46598 339.578177,30.492571 339.578177,35.559111 C339.578177,40.172329 336.911577,42.812263 329.471763,45.59886 C319.632009,49.19877 314.632134,54.491971 314.632134,61.385132 C314.632134,70.878228 322.711932,77.758056 333.831654,77.758056 C339.031524,77.758056 344.098064,76.464755 347.431314,74.291476 L347.497979,74.251477 L345.018041,66.784997 L344.858045,66.878328 C341.204803,68.971609 337.418231,70.051582 333.604993,70.051582 C327.378482,70.051582 324.591885,66.318342 324.591885,62.638434 C324.591885,57.971884 327.791805,55.971934 334.911627,53.265335 C345.151371,49.438764 349.511262,44.39889 349.511262,36.439089 C349.511262,26.212678 341.378132,19.612843 328.805113,19.612843 M385.897019,19.679508 C369.097439,19.679508 358.204378,30.879228 358.204378,48.172129 C358.204378,65.611693 370.470738,77.798055 388.070298,77.798055 C394.336808,77.798055 399.536678,76.198095 402.069948,74.811463 L402.176612,74.771464 L399.816671,66.851662 L399.683341,66.93166 C396.350091,68.66495 392.456855,69.531595 388.083631,69.531595 C374.6573,69.531595 368.65745,59.025191 368.65745,48.625451 C368.65745,36.332425 376.323925,28.065965 387.72364,28.065965 C393.3235,28.065965 397.083406,29.399265 400.016666,30.679233 L400.149996,30.759231 L401.949951,22.959426 L401.85662,22.919427 C398.603368,21.372799 392.696849,19.719507 385.897019,19.719507 M441.215636,49.19877 C426.815996,49.19877 419.536178,45.038874 419.536178,36.852412 C419.536178,29.86592 424.309392,27.385982 428.775947,27.385982 C436.402423,27.385982 440.775647,32.319192 442.242277,36.545753 C442.535603,37.452397 442.695599,38.519037 442.695599,39.719007 L442.695599,49.185437 L441.202303,49.212103 L441.215636,49.19877 Z M426.25601,19.679508 C414.52297,19.679508 409.18977,27.985967 409.18977,35.705774 C409.18977,49.06544 420.896144,56.425256 442.12228,56.425256 L442.468938,56.425256 L442.468938,57.425231 C442.468938,63.211753 440.335658,70.091581 430.25591,70.091581 L430.029249,70.091581 C424.696049,70.091581 419.429514,68.624951 415.576277,66.011683 L415.442947,65.918352 L413.043007,72.93151 L413.136338,72.971509 C417.976217,75.9981 424.842712,77.798055 431.509212,77.798055 C449.108772,77.798055 452.78868,65.398365 452.78868,55.025291 L452.78868,34.332475 C452.78868,29.052607 453.05534,24.599385 453.58866,21.092806 L453.628659,20.93281 L444.322225,20.93281 L443.388915,27.905969 L443.175587,27.905969 C440.535653,23.959401 434.615801,19.679508 426.242677,19.679508 M468.65495,20.93281 L478.988025,20.93281 L478.988025,102.39744 L468.65495,102.39744 L468.65495,20.93281 Z M530.52007,54.358641 C530.52007,56.39859 530.25341,62.691766 526.160179,66.851662 C523.826904,69.251602 520.693649,70.451572 516.827079,70.451572 C506.960659,70.451572 502.427439,61.811788 501.520795,54.358641 L530.52007,54.358641 Z M518.760364,19.799505 C502.147446,19.799505 491.427714,30.79923 491.427714,47.825471 C491.427714,65.558361 502.187445,77.918052 517.613726,77.918052 C534.506637,77.918052 540.493154,63.785072 540.493154,51.718707 C540.493154,49.638759 540.38649,48.012133 540.146496,46.865495 L540.146496,46.758831 L501.400798,46.892161 C501.667458,35.025791 508.640617,27.932635 520.133663,27.932635 C527.666808,27.932635 532.080031,29.319267 535.413281,30.6659 L535.546611,30.745898 L537.45323,23.412748 L537.3199,23.346083 C533.71999,21.746123 527.58681,19.812838 518.760364,19.812838" id="Shape" fill="#424242"></path>
            </g>
        </g>
    </g>
</svg>